<?xml version="1.0" standalone="no"?><svg xmlns="http://www.w3.org/2000/svg" viewBox="0 0 1440 320"><path fill="#d1d054" fill-opacity="1" d="M0,192L20,176C40,160,80,128,120,117.3C160,107,200,117,240,144C280,171,320,213,360,202.7C400,192,440,128,480,101.3C520,75,560,85,600,128C640,171,680,245,720,256C760,267,800,213,840,160C880,107,920,53,960,37.3C1000,21,1040,43,1080,58.7C1120,75,1160,85,1200,96C1240,107,1280,117,1320,117.3C1360,117,1400,107,1420,101.3L1440,96L1440,0L1420,0C1400,0,1360,0,1320,0C1280,0,1240,0,1200,0C1160,0,1120,0,1080,0C1040,0,1000,0,960,0C920,0,880,0,840,0C800,0,760,0,720,0C680,0,640,0,600,0C560,0,520,0,480,0C440,0,400,0,360,0C320,0,280,0,240,0C200,0,160,0,120,0C80,0,40,0,20,0L0,0Z"></path></svg>